# xmcd CD database file
#
# Track frame offsets:
#	150
#	12040
#	25379
#	43229
#	57792
#	71687
#
# Disc length: 1091 seconds
#
# Revision: 0
# Processed by: cddbd v1.5.2PL0 Copyright (c) Steve Scherf et al.
# Submitted via: CDex 1.51
#
DISCID=4a044106
DTITLE=The Fog - The Fog Live
DYEAR=2013
DGENRE=Blues
TTITLE0=Sister Kate
TTITLE1=Gone, Gone, Gone
TTITLE2=Learn How to Sing the Blues
TTITLE3=Rollin` and Tumblin`
TTITLE4=Diddle wa Diddle
TTITLE5=I Lost my Girl from Mephis
EXTD=YEAR: 2013
EXTT0=
EXTT1=
EXTT2=
EXTT3=
EXTT4=
EXTT5=
PLAYORDER=
